<?xml version="1.0" encoding="UTF-8" standalone="no"?>
<!-- Created with Inkscape (http://www.inkscape.org/) -->

<svg
   width="32"
   height="32"
   viewBox="0 0 32 32"
   version="1.1"
   id="svg1"
   xmlns:inkscape="http://www.inkscape.org/namespaces/inkscape"
   xmlns:sodipodi="http://sodipodi.sourceforge.net/DTD/sodipodi-0.dtd"
   xmlns="http://www.w3.org/2000/svg"
   xmlns:svg="http://www.w3.org/2000/svg">
  <sodipodi:namedview
     id="namedview1"
     pagecolor="#ffffff"
     bordercolor="#000000"
     borderopacity="0.25"
     inkscape:showpageshadow="2"
     inkscape:pageopacity="0.0"
     inkscape:pagecheckerboard="0"
     inkscape:deskcolor="#d1d1d1"
     inkscape:document-units="px"
     showguides="true">
    <sodipodi:guide
       position="0,4.2169197"
       orientation="1,0"
       id="guide1"
       inkscape:locked="false" />
    <sodipodi:guide
       position="0.71149675,0"
       orientation="0,-1"
       id="guide2"
       inkscape:locked="false" />
    <sodipodi:guide
       position="0,32"
       orientation="0,-1"
       id="guide3"
       inkscape:locked="false" />
    <sodipodi:guide
       position="32,32"
       orientation="1,0"
       id="guide4"
       inkscape:locked="false" />
  </sodipodi:namedview>
  <defs
     id="defs1" />
  <g
     inkscape:label="Layer 1"
     inkscape:groupmode="layer"
     id="layer1">
    <path
       d="m 14.812185,3.7706604 c 0.376327,-0.8443061 0.564572,-1.2664592 0.826619,-1.3964587 0.227585,-0.112947 0.494834,-0.112947 0.722419,0 0.262047,0.1299995 0.450292,0.5521526 0.826619,1.3964587 l 2.997614,6.7250116 c 0.111354,0.249595 0.166949,0.374393 0.253106,0.469962 0.07608,0.08456 0.169226,0.152205 0.273102,0.198503 0.117531,0.05234 0.253431,0.06668 0.525232,0.09536 l 7.322208,0.772829 c 0.919279,0.09702 1.378837,0.145524 1.583501,0.35456 0.177678,0.181564 0.260259,0.435808 0.223195,0.687192 -0.04259,0.289357 -0.385918,0.59871 -1.072573,1.217577 l -5.46967,4.929157 c -0.202875,0.18288 -0.304475,0.274402 -0.368687,0.385755 -0.0569,0.09868 -0.0925,0.208078 -0.104364,0.32122 -0.01349,0.127935 0.01479,0.261559 0.07153,0.528971 l 1.527743,7.202563 c 0.191821,0.904324 0.287731,1.356404 0.152156,1.615526 -0.117856,0.225308 -0.334061,0.382342 -0.584567,0.42477 -0.288382,0.04877 -0.688768,-0.182068 -1.489541,-0.643902 L 16.64977,25.376974 c -0.236688,-0.136551 -0.355032,-0.204664 -0.480853,-0.231486 -0.111354,-0.02357 -0.226447,-0.02357 -0.337801,0 -0.125822,0.02682 -0.244166,0.09493 -0.480854,0.231486 l -6.3780238,3.678741 c -0.80074,0.461834 -1.20111,0.69267 -1.4895084,0.643902 C 7.232205,29.657186 7.0159347,29.500152 6.8981759,29.274844 6.7626168,29.015722 6.8585112,28.563642 7.0503162,27.659318 l 1.5276775,-7.202563 c 0.056701,-0.267412 0.085052,-0.401036 0.071592,-0.528971 C 8.6377184,19.814642 8.6021177,19.705239 8.5452216,19.606564 8.4809289,19.495211 8.3794262,19.403689 8.1764371,19.220809 L 2.7068977,14.291652 c -0.6866714,-0.618867 -1.0300152,-0.92822 -1.0727035,-1.217577 -0.037064,-0.251384 0.045533,-0.505628 0.2232767,-0.687192 0.204631,-0.209036 0.6642705,-0.257544 1.5835495,-0.35456 l 7.3221916,-0.772829 c 0.271768,-0.02867 0.407636,-0.04301 0.525135,-0.09536 0.103957,-0.0463 0.197039,-0.113939 0.273215,-0.198503 0.08608,-0.09557 0.141704,-0.220367 0.252976,-0.469962 z"
       stroke="#000000"
       stroke-width="3.25121"
       stroke-linecap="round"
       stroke-linejoin="round"
       id="path1"
       inkscape:export-filename="icon-star.svg"
       inkscape:export-xdpi="96"
       inkscape:export-ydpi="96"
       style="stroke:#000000;stroke-opacity:1"
       inkscape:label="starpath" />
  </g>
</svg>
