<?xml version="1.0" encoding="UTF-8" standalone="no"?>
<!-- Created with Inkscape (http://www.inkscape.org/) -->

<svg
   width="155.13007mm"
   height="181.81673mm"
   viewBox="0 0 155.13007 181.81673"
   version="1.1"
   id="svg1"
   sodipodi:docname="remove-icon.svg"
   inkscape:export-filename="remove-icon.svg"
   inkscape:export-xdpi="96"
   inkscape:export-ydpi="96"
   inkscape:version="1.3.2 (091e20ef0f, 2023-11-25, custom)"
   xmlns:inkscape="http://www.inkscape.org/namespaces/inkscape"
   xmlns:sodipodi="http://sodipodi.sourceforge.net/DTD/sodipodi-0.dtd"
   xmlns="http://www.w3.org/2000/svg"
   xmlns:svg="http://www.w3.org/2000/svg">
  <sodipodi:namedview
     id="namedview1"
     pagecolor="#ffffff"
     bordercolor="#000000"
     borderopacity="0.25"
     inkscape:showpageshadow="2"
     inkscape:pageopacity="0.0"
     inkscape:pagecheckerboard="0"
     inkscape:deskcolor="#d1d1d1"
     inkscape:document-units="mm"
     showgrid="false"
     showguides="true"
     inkscape:zoom="1.2805936"
     inkscape:cx="217.47727"
     inkscape:cy="212.4015"
     inkscape:window-width="1918"
     inkscape:window-height="1078"
     inkscape:window-x="0"
     inkscape:window-y="0"
     inkscape:window-maximized="1"
     inkscape:current-layer="svg1">
    <sodipodi:guide
       position="77.565036,152.88568"
       orientation="1,0"
       id="guide1"
       inkscape:locked="false" />
  </sodipodi:namedview>
  <defs
     id="defs1" />
  <g
     id="layer1"
     style="display:inline;mix-blend-mode:darken;stroke-width:13.2268;stroke-dasharray:none;paint-order:fill markers stroke"
     transform="matrix(0.89806241,0,0,0.86841414,-18.771925,-46.448468)">
    <g
       id="g1"
       style="stroke-width:13.2268;stroke-dasharray:none;paint-order:fill markers stroke">
      <path
         id="rect1"
         style="fill:#000000;stroke:#000000;stroke-width:13.2268;stroke-linecap:round;stroke-linejoin:round;stroke-dasharray:none;stroke-opacity:1;paint-order:fill markers stroke"
         d="m 107.38311,111.15187 -63.336703,0.54932 9.246981,132.8043 c 0.314624,4.5184 3.703534,8.17573 8.303886,8.17573 h 90.056516 c 4.60036,0 7.98926,-3.65733 8.30389,-8.17573 l 9.2475,-132.8043 z m -0.1111,7.44192 54.86641,0.49455 -8.20725,119.57306 c -0.27922,4.06822 -3.2868,7.36131 -7.36957,7.36131 H 66.636759 c -4.082788,0 -7.090347,-3.29309 -7.369576,-7.36131 L 51.060449,119.08834 Z" />
    </g>
  </g>
  <g
     id="layer2"
     style="display:inline;stroke-width:0;stroke-dasharray:none"
     transform="translate(-29.818335,-62.781178)">
    <path
       id="rect2"
       style="display:inline;stroke:#ffffff;stroke-width:0;stroke-linecap:round;stroke-linejoin:round;stroke-dasharray:none"
       d="m 86.035059,73.364514 c -4.349518,0 -7.892132,3.31309 -8.264095,7.562846 H 40.502437 c -5.918996,0 -10.684102,4.765106 -10.684102,10.684102 0,5.918996 4.765106,10.684098 10.684102,10.684098 H 174.2643 c 5.91899,0 10.6841,-4.765102 10.6841,-10.684098 0,-5.918996 -4.76511,-10.684102 -10.6841,-10.684102 h -37.26853 c -0.37196,-4.249756 -3.91457,-7.562846 -8.26409,-7.562846 z" />
  </g>
</svg>
