<?xml version="1.0" encoding="iso-8859-1"?>
<!-- Uploaded to: SVG Repo, www.svgrepo.com, Generator: SVG Repo Mixer Tools -->
<svg height="800px" width="800px" version="1.1" id="Layer_1" xmlns="http://www.w3.org/2000/svg" xmlns:xlink="http://www.w3.org/1999/xlink" 
	 viewBox="0 0 512 512" xml:space="preserve">
<path style="fill:#AB91EA;" d="M0,256.006C0,397.402,114.606,512.004,255.996,512C397.394,512.004,512,397.402,512,256.006
	C512.009,114.61,397.394,0,255.996,0C114.606,0,0,114.614,0,256.006z"/>
<path style="fill:#947ADB;" d="M512,256.005c0.001-15.399-1.435-30.453-4.039-45.104c-0.185-0.114-0.366-0.236-0.544-0.367
	c-0.207-0.284-0.315-0.613-0.569-0.871c-0.272-0.276-80.438-80.434-80.692-80.692c-2.783-2.82-7.327-2.852-10.151-0.074
	L175.824,365.6l-0.461-0.486c-0.069-0.073-0.164-0.097-0.236-0.166l-78.962-79.031c-2.726-2.877-7.264-2.999-10.144-0.277
	c-2.877,2.726-3.003,7.267-0.276,10.144l82.518,87.14c0.069,0.073,0.169,0.099,0.24,0.17l1.254,1.325
	c0.068,0.073,124.027,124.027,124.027,124.027c0.067,0.071,0.166,0.099,0.237,0.167l0.477,0.503
	C417.626,490.547,512,384.314,512,256.005z"/>
<path style="fill:#F4F6F9;" d="M426.156,128.973c-2.782-2.82-7.327-2.852-10.15-0.074L173.653,367.74l-77.487-81.825
	c-2.726-2.877-7.263-2.999-10.144-0.276c-2.877,2.726-3.003,7.267-0.276,10.144l82.518,87.14c1.325,1.402,3.157,2.207,5.088,2.242
	h0.123c1.885,0,3.693-0.739,5.039-2.064l247.569-243.978C428.902,136.341,428.938,131.796,426.156,128.973z"/>
</svg>