<?xml version="1.0" encoding="utf-8"?><!-- Uploaded to: SVG Repo, www.svgrepo.com, Generator: SVG Repo Mixer Tools -->
<svg width="800px" height="800px" viewBox="0 0 32 32" fill="none" xmlns="http://www.w3.org/2000/svg">
<path d="M27 6H5C3.34315 6 2 7.34315 2 9V23C2 24.6569 3.34315 26 5 26H27C28.6569 26 30 24.6569 30 23V9C30 7.34315 28.6569 6 27 6Z" fill="#D81B60"/>
<path d="M2 9V23C2 23.7956 2.31607 24.5587 2.87868 25.1213C3.44129 25.6839 4.20435 26 5 26H16V6H5C4.20435 6 3.44129 6.31607 2.87868 6.87868C2.31607 7.44129 2 8.20435 2 9Z" fill="#F06292"/>
<path d="M24.16 9.00001C24.0285 8.97724 23.8937 8.98103 23.7637 9.01115C23.6337 9.04127 23.511 9.09712 23.4029 9.17541C23.2948 9.25369 23.2034 9.35283 23.1342 9.46697C23.065 9.58112 23.0194 9.70796 23 9.84001L22.4 13.47C21.9686 13.0582 21.4386 12.7642 20.8609 12.6161C20.2831 12.4681 19.677 12.471 19.1007 12.6246C18.5245 12.7782 17.9973 13.0774 17.5699 13.4933C17.1425 13.9093 16.8292 14.4281 16.66 15H15.34C15.1716 14.4262 14.8583 13.9055 14.4301 13.488C14.002 13.0706 13.4735 12.7705 12.8956 12.6167C12.3177 12.463 11.71 12.4607 11.131 12.6102C10.552 12.7596 10.0213 13.0558 9.59 13.47L9 9.84001C8.9806 9.70796 8.93496 9.58112 8.86577 9.46697C8.79658 9.35283 8.70523 9.25369 8.59712 9.17541C8.48902 9.09712 8.36633 9.04127 8.2363 9.01115C8.10626 8.98103 7.97152 8.97724 7.84 9.00001C7.70693 9.01932 7.57913 9.06527 7.46423 9.1351C7.34933 9.20493 7.24969 9.29722 7.17127 9.40644C7.09286 9.51567 7.03727 9.63958 7.00784 9.77078C6.97841 9.90198 6.97575 10.0378 7 10.17L8 16.17C8.03028 16.3404 8.10425 16.5 8.21468 16.6332C8.32511 16.7664 8.46821 16.8687 8.63 16.93C8.82767 17.6626 9.25938 18.3105 9.85936 18.7751C10.4593 19.2396 11.1947 19.4953 11.9535 19.5032C12.7122 19.5112 13.4528 19.2709 14.0624 18.819C14.6719 18.3671 15.1171 17.7283 15.33 17H16.65C16.8629 17.7283 17.3081 18.3671 17.9176 18.819C18.5272 19.2709 19.2678 19.5112 20.0265 19.5032C20.7853 19.4953 21.5206 19.2396 22.1206 18.7751C22.7206 18.3105 23.1523 17.6626 23.35 16.93C23.5118 16.8687 23.6549 16.7664 23.7653 16.6332C23.8757 16.5 23.9497 16.3404 23.98 16.17L24.98 10.17C25.0044 10.0392 25.0024 9.90485 24.9743 9.77481C24.9461 9.64477 24.8922 9.52166 24.8159 9.4127C24.7395 9.30374 24.6421 9.21111 24.5295 9.14025C24.4169 9.06938 24.2913 9.02171 24.16 9.00001ZM12 17.5C11.7033 17.5 11.4133 17.412 11.1666 17.2472C10.92 17.0824 10.7277 16.8481 10.6142 16.574C10.5006 16.2999 10.4709 15.9984 10.5288 15.7074C10.5867 15.4164 10.7296 15.1491 10.9393 14.9394C11.1491 14.7296 11.4164 14.5867 11.7074 14.5288C11.9983 14.471 12.2999 14.5007 12.574 14.6142C12.8481 14.7277 13.0824 14.92 13.2472 15.1667C13.412 15.4133 13.5 15.7033 13.5 16C13.5 16.3978 13.342 16.7794 13.0607 17.0607C12.7794 17.342 12.3978 17.5 12 17.5ZM20 17.5C19.7033 17.5 19.4133 17.412 19.1666 17.2472C18.92 17.0824 18.7277 16.8481 18.6142 16.574C18.5006 16.2999 18.4709 15.9984 18.5288 15.7074C18.5867 15.4164 18.7296 15.1491 18.9393 14.9394C19.1491 14.7296 19.4164 14.5867 19.7074 14.5288C19.9983 14.471 20.2999 14.5007 20.574 14.6142C20.8481 14.7277 21.0824 14.92 21.2472 15.1667C21.412 15.4133 21.5 15.7033 21.5 16C21.5 16.3978 21.342 16.7794 21.0607 17.0607C20.7794 17.342 20.3978 17.5 20 17.5Z" fill="#F9A825"/>
<path d="M17 6V11C17 11.2652 16.8946 11.5196 16.7071 11.7071C16.5196 11.8946 16.2652 12 16 12C15.7348 12 15.4804 11.8946 15.2929 11.7071C15.1054 11.5196 15 11.2652 15 11V6H17Z" fill="#E0E0E0"/>
<path d="M17 21V26H15V21C15 20.7348 15.1054 20.4804 15.2929 20.2929C15.4804 20.1054 15.7348 20 16 20C16.2652 20 16.5196 20.1054 16.7071 20.2929C16.8946 20.4804 17 20.7348 17 21Z" fill="#E0E0E0"/>
<path d="M15.34 15C15.1717 14.4262 14.8583 13.9055 14.4301 13.488C14.002 13.0706 13.4735 12.7705 12.8956 12.6168C12.3177 12.463 11.71 12.4607 11.131 12.6102C10.552 12.7596 10.0213 13.0558 9.59 13.47L9 9.84002C8.97899 9.7087 8.93232 9.5828 8.86265 9.46952C8.79298 9.35623 8.70169 9.25778 8.59397 9.17978C8.48625 9.10178 8.36423 9.04576 8.23486 9.01491C8.1055 8.98407 7.97132 8.97901 7.84 9.00002C7.70868 9.02104 7.58278 9.06771 7.4695 9.13737C7.35621 9.20704 7.25776 9.29834 7.17976 9.40605C7.10176 9.51377 7.04573 9.6358 7.01489 9.76516C6.98405 9.89453 6.97899 10.0287 7 10.16L8 16.16C8.02868 16.3322 8.10193 16.4938 8.21245 16.6289C8.32297 16.764 8.46693 16.8678 8.63 16.93C8.82768 17.6626 9.25938 18.3105 9.85937 18.7751C10.4593 19.2396 11.1947 19.4953 11.9535 19.5033C12.7122 19.5112 13.4528 19.2709 14.0624 18.819C14.6719 18.3671 15.1171 17.7283 15.33 17H16V15H15.34ZM12 17.5C11.7033 17.5 11.4133 17.4121 11.1666 17.2472C10.92 17.0824 10.7277 16.8481 10.6142 16.574C10.5007 16.3 10.4709 15.9984 10.5288 15.7074C10.5867 15.4164 10.7296 15.1491 10.9393 14.9394C11.1491 14.7296 11.4164 14.5867 11.7074 14.5288C11.9983 14.471 12.2999 14.5007 12.574 14.6142C12.8481 14.7277 13.0824 14.92 13.2472 15.1667C13.412 15.4133 13.5 15.7034 13.5 16C13.5 16.3978 13.342 16.7794 13.0607 17.0607C12.7794 17.342 12.3978 17.5 12 17.5Z" fill="#FBC02D"/>
<path d="M15 6V11C15 11.2652 15.1054 11.5196 15.2929 11.7071C15.4804 11.8946 15.7348 12 16 12V6H15Z" fill="#F5F5F5"/>
<path d="M15 21V26H16V20C15.7348 20 15.4804 20.1054 15.2929 20.2929C15.1054 20.4804 15 20.7348 15 21Z" fill="#F5F5F5"/>
</svg>