<?xml version="1.0" encoding="UTF-8" standalone="no"?>
<!-- Created with Inkscape (http://www.inkscape.org/) -->

<svg
   width="15.106992"
   height="14.479682"
   viewBox="0 0 15.106992 14.479682"
   version="1.1"
   id="svg1"
   xmlns="http://www.w3.org/2000/svg"
   xmlns:svg="http://www.w3.org/2000/svg">
  <defs
     id="defs1" />
  <g
     id="layer1"
     transform="translate(-8.4465036,-8.7601595)">
    <path
       d="m 15.43924,10.226608 c 0.177661,-0.3985919 0.266531,-0.5978877 0.390241,-0.6592597 0.107442,-0.053322 0.233608,-0.053322 0.34105,0 0.123711,0.061372 0.21258,0.2606678 0.390242,0.6592597 l 1.415154,3.174835 c 0.05257,0.117832 0.07882,0.176748 0.11949,0.221866 0.03592,0.03992 0.07989,0.07185 0.12893,0.09371 0.05549,0.02471 0.119643,0.03148 0.247959,0.04502 l 3.456768,0.364847 c 0.433985,0.0458 0.65094,0.0687 0.74756,0.167386 0.08388,0.08572 0.122867,0.205742 0.105369,0.324419 -0.02011,0.136604 -0.182189,0.282647 -0.506355,0.574811 l -2.582196,2.327022 c -0.09578,0.08634 -0.143741,0.129544 -0.174055,0.182113 -0.02686,0.04658 -0.04367,0.09823 -0.04927,0.151646 -0.0064,0.0604 0.007,0.123481 0.03377,0.249724 l 0.721238,3.400284 c 0.09056,0.426925 0.135836,0.64035 0.07183,0.762679 -0.05564,0.106367 -0.157709,0.180501 -0.275971,0.200532 -0.136143,0.02302 -0.325163,-0.08595 -0.703203,-0.303982 l -3.01104,-1.736711 c -0.111739,-0.06446 -0.167608,-0.09662 -0.227008,-0.109283 -0.05257,-0.01113 -0.106904,-0.01113 -0.159474,0 -0.0594,0.01266 -0.115269,0.04482 -0.227008,0.109283 l -3.011025,1.736711 c -0.378024,0.218029 -0.567036,0.327005 -0.703187,0.303982 -0.11827,-0.02003 -0.22037,-0.09417 -0.275963,-0.200532 -0.064,-0.122329 -0.01872,-0.335754 0.07182,-0.762679 l 0.721207,-3.400284 c 0.02677,-0.126243 0.04015,-0.189327 0.0338,-0.249724 -0.0056,-0.05341 -0.02241,-0.105062 -0.04927,-0.151646 -0.03035,-0.05257 -0.07827,-0.09578 -0.174101,-0.182113 L 9.7244109,15.193501 c -0.3241732,-0.292163 -0.4862636,-0.438207 -0.5064165,-0.57481 -0.017498,-0.118677 0.021496,-0.238704 0.1054075,-0.324419 0.096605,-0.09868 0.3135979,-0.121585 0.7475841,-0.167386 l 3.456759,-0.364847 c 0.1283,-0.01354 0.192443,-0.02031 0.247913,-0.04502 0.04908,-0.02186 0.09302,-0.05379 0.128983,-0.09371 0.04064,-0.04512 0.0669,-0.104034 0.119429,-0.221866 z"
       stroke="#000000"
       stroke-width="1.53487"
       stroke-linecap="round"
       stroke-linejoin="round"
       id="path1"
       style="stroke:#000000;stroke-opacity:1" />
  </g>
</svg>
