<?xml version="1.0" encoding="UTF-8" standalone="no"?>
<!-- Created with Inkscape (http://www.inkscape.org/) -->

<svg
   width="11.713763mm"
   height="11.758682mm"
   viewBox="0 0 11.713763 11.758682"
   version="1.1"
   id="svg1"
   xml:space="preserve"
   xmlns="http://www.w3.org/2000/svg"
   xmlns:svg="http://www.w3.org/2000/svg"><defs
     id="defs1" /><g
     id="layer1"
     transform="translate(-109.01565,-141.69098)"><path
       id="path1-2"
       style="display:inline;fill:#dc143c;stroke:#000000;stroke-width:0;stroke-linecap:round;stroke-linejoin:round"
       d="m 114.5899,144.62425 a 2.7974055,2.7974055 0 0 0 -2.79724,2.79724 2.7974055,2.7974055 0 0 0 2.79724,2.79725 2.7974055,2.7974055 0 0 0 0.43305,-0.0362 v -0.50229 a 2.3049548,2.3049548 0 0 1 -0.43305,0.046 2.3049548,2.3049548 0 0 1 -2.30476,-2.30477 2.3049548,2.3049548 0 0 1 2.30476,-2.30528 2.3049548,2.3049548 0 0 1 0.43305,0.0419 v -0.49764 a 2.7974055,2.7974055 0 0 0 -0.43305,-0.0362 z" /><g
       id="g53"
       style="display:inline"><path
         id="path43"
         style="display:inline;fill:#5a9cfe;stroke:#ce4100;stroke-width:0;stroke-linecap:round;stroke-linejoin:round"
         d="m -134.3436,115.88706 c 0,-0.17087 -0.13757,-0.30861 -0.30844,-0.30861 h -4.04213 -3.09697 l -4.00182,-1e-5 c -0.17087,0 -0.30806,0.13775 -0.30806,0.30862 0,0.17087 0.13757,0.30861 0.30844,0.30861 h 2.55385 l -1.88184,0.80208 c -0.16197,0.069 -0.22819,0.25896 -0.14871,0.42564 0.0795,0.16668 0.27397,0.24509 0.43594,0.17605 l 1.03197,-0.44013 -0.11513,0.19728 c -0.0885,0.15131 -0.0331,0.35223 0.12417,0.45049 0.15723,0.0983 0.35504,0.0555 0.44351,-0.0958 l 0.53149,-0.90875 c 0.0142,-0.0242 0.0244,-0.05 0.0314,-0.0761 l 1.24534,-0.53075 h 0.76946 l -1.05888,2.10229 c -0.0164,9.6e-4 -0.0328,0.003 -0.0492,0.007 l -0.81566,0.17605 c -0.17374,0.0375 -0.27425,0.20981 -0.22562,0.38628 0.0486,0.17647 0.22766,0.28813 0.4014,0.25062 l 0.31047,-0.0668 -0.74813,1.48559 c -0.075,0.14887 -0.008,0.32893 0.15067,0.40389 0.15837,0.075 0.34603,0.0158 0.42099,-0.13308 l 0.74948,-1.48869 0.0758,0.27444 c 0.0486,0.17647 0.22766,0.28813 0.4014,0.25062 0.17372,-0.0375 0.27424,-0.20982 0.22562,-0.38629 l -0.2732,-0.9916 1.01842,-2.02306 1.33357,2.11575 c -0.009,0.0204 -0.0162,0.0417 -0.0207,0.0647 l -0.15935,0.8202 c -0.034,0.17466 0.0811,0.35196 0.25824,0.39716 0.17717,0.0452 0.34696,-0.0594 0.381,-0.23405 l 0.0476,-0.24388 0.91067,1.44468 c 0.0938,0.14887 0.289,0.20803 0.43787,0.13307 0.14887,-0.075 0.19329,-0.25502 0.0994,-0.40389 l -0.96871,-1.53685 0.45016,0.11496 c 0.17717,0.0452 0.34696,-0.0594 0.381,-0.23405 0.034,-0.17466 -0.081,-0.35144 -0.25821,-0.39664 l -1.06469,-0.27133 c -0.002,-4.5e-4 -0.003,-6.2e-4 -0.005,-0.001 l -1.27038,-2.01582 h 0.76894 l 1.3132,0.53127 c 0.0103,0.0259 0.0233,0.051 0.0404,0.0751 l 0.64677,0.90927 c 0.10765,0.15131 0.31089,0.19406 0.45566,0.0958 0.14477,-0.0983 0.17469,-0.2992 0.067,-0.45049 l -0.14015,-0.19729 1.08831,0.44014 c 0.17072,0.069 0.35529,-0.009 0.41362,-0.17606 0.0583,-0.16668 -0.0325,-0.35659 -0.20321,-0.42563 l -1.98303,-0.80209 h 2.51612 c 0.17087,0 0.30806,-0.13774 0.30806,-0.30861 z"
         transform="matrix(-3.8032732e-7,-1,0.99798778,0.06340666,0,0)" /></g><g
       id="g59"
       style="display:inline;fill:#dc143c"
       transform="matrix(1.096027,0,0,1,-12.780435,-0.91957416)"><path
         id="rect53"
         style="display:inline;fill:#dc143c;stroke:#ce4100;stroke-width:0;stroke-linecap:round;stroke-linejoin:round;stroke-dasharray:none;stroke-opacity:1"
         d="m -176.27263,-52.898783 c 0.0753,0.153399 0.009,0.329705 -0.14902,0.395093 l -2.90705,1.204143 a 2.3050237,2.3050249 67.5 0 0 -0.0473,-0.142607 2.3050237,2.3050249 67.5 0 0 -0.22278,-0.412248 l 2.90563,-1.20355 c 0.15786,-0.06539 0.34529,0.0058 0.42055,0.159169 z m -0.007,1.838835 c 0.0164,0.03886 0.0255,0.08145 0.0255,0.126462 0,0.18005 -0.14496,0.325359 -0.32501,0.325359 l -2.62711,2.68e-4 a 2.3050237,2.3050249 67.5 0 0 -0.10784,-0.650595 l 2.7348,4.35e-4 c 0.13504,0 0.25038,0.08148 0.29963,0.198071 z m -1.05855,2.933689 c 0.006,0.01313 0.0115,0.02673 0.0157,0.0405 0.028,0.09177 0.008,0.195008 -0.0629,0.274947 -0.1133,0.127903 -0.31293,0.14612 -0.44776,0.04116 l -1.82352,-1.419395 a 2.3050237,2.3050249 67.5 0 0 0.29908,-0.547305 l 1.93349,1.505289 c 0.0379,0.02952 0.0668,0.06542 0.0859,0.104805 z m -2.20824,1.871716 c 0.0655,0.157526 -0.007,0.340827 -0.16245,0.411283 -0.15538,0.07046 -0.33294,3.95e-4 -0.39845,-0.157135 l -0.95772,-2.302683 a 2.3050237,2.3050249 67.5 0 0 0.44182,-0.127075 2.3050237,2.3050249 67.5 0 0 0.14222,-0.07122 z m -2.55176,-2.08373 -0.30682,2.462342 c -0.0211,0.169559 -0.17517,0.297838 -0.34573,0.287513 -0.17055,-0.01033 -0.2909,-0.154978 -0.26978,-0.324537 l 0.33282,-2.675036 a 2.3050237,2.3050249 67.5 0 0 0.58951,0.249718 z m -1.14497,-0.714339 -2.0557,2.056322 c -0.12732,0.127311 -0.33257,0.127067 -0.45988,-2.47e-4 -0.12732,-0.127314 -0.12735,-0.331891 -4e-5,-0.459206 l 2.01475,-2.014748 -2.97008,1.230247 c -0.15786,0.06539 -0.34528,-0.0058 -0.42055,-0.159169 -0.0753,-0.153395 -0.009,-0.329704 0.14902,-0.395093 l 3.22168,-1.334465 a 2.3050237,2.3050249 67.5 0 0 0.12921,0.451009 2.3050237,2.3050249 67.5 0 0 0.39159,0.62535 z"
         transform="matrix(-0.38268343,-0.92387953,-0.92387953,0.38268343,0,0)" /></g></g></svg>
