<?xml version="1.0" ?>
<!-- Uploaded to: SVG Repo, www.svgrepo.com, Generator: SVG Repo Mixer Tools -->
<svg width="800px" height="800px" viewBox="0 0 32 32" xmlns="http://www.w3.org/2000/svg">
<defs>
<style>.cls-1{fill:#8c9eff;}.cls-2{fill:#5f7cf9;}</style>
</defs>
<title/>
<g id="Chart">
<rect class="cls-1" height="13" rx="1" ry="1" width="6" x="5" y="17"/>
<rect class="cls-1" height="17" rx="1" ry="1" width="6" x="21" y="13"/>
<rect class="cls-1" height="24" rx="1" ry="1" width="6" x="13" y="6"/>
<path class="cls-2" d="M27,14a1,1,0,0,0-.29-.71L21,17.66V29a1,1,0,0,0,1,1h4a1,1,0,0,0,1-1Z"/>
<path class="cls-2" d="M13,23.77V29a1,1,0,0,0,1,1h4a1,1,0,0,0,1-1V19.19Z"/>
<path class="cls-2" d="M5.27,29.68A1,1,0,0,0,6,30h4a1,1,0,0,0,1-1V25.3Z"/>
</g>
</svg>